<svg xmlns="http://www.w3.org/2000/svg" viewBox="0 0 280 280"><defs><style>.a31b8030-cb67-4e33-bbf9-17c13befd1ab,.b3c75ce2-2a24-49a5-9522-771b5bdf5ae2{fill:none;}.b3c75ce2-2a24-49a5-9522-771b5bdf5ae2{stroke:#f7f4f1;stroke-width:14px;}.a31b8030-cb67-4e33-bbf9-17c13befd1ab{stroke:#1c1c29;stroke-width:4px;}</style></defs><g id="a5273dc1-be7d-47eb-bf0a-2d6a135663ab" data-name="Large"><path id="b6da044d-4125-4bf3-b589-9899819e2184" data-name="track" class="b3c75ce2-2a24-49a5-9522-771b5bdf5ae2" d="M92.23,206.87c-11.16-.48-30.79-1.36-39.17-1.73s-7.83-.36-11.1-.52-6-.32-8.51-.47-4.91-.36-6.54-.45-2.22,0-3.19-.1a6.22,6.22,0,0,1-2.62-.49,2,2,0,0,1-.9-2.08,11.31,11.31,0,0,1,2.23-3.23c1-1.21,2.64-2.8,3.82-4.1s2.22-2.49,3.27-3.75,3-1.55,3-3.87-1.79-6.49-2.75-10.1-2.95-6.91-3.06-11.6,1.15-9.53,2.37-16.54,3.5-17.77,5-25.5,2.5-13.43,3.9-20.86,3.28-17.36,4.5-23.69,2.14-11.05,2.78-14.22.68-3.41,1-4.76.56-2.14.81-3.37a24.79,24.79,0,0,1,.74-4,5.85,5.85,0,0,1,2.06-2.86,6.59,6.59,0,0,1,3.75-.83c1.47.06,3.27-.07,5,1.17s3.7,4,5.53,6.24,2.73,4.16,5.42,7.4,7.49,8.68,10.74,12a70.26,70.26,0,0,0,8.74,7.93c2.81,2.07,5.76,3.22,8.17,4.48s4.67,1.59,6.31,3a16.11,16.11,0,0,1,3.51,5.66,9.18,9.18,0,0,1,.5,4.37c0,1.64-.53,3.67-.79,5.52s-.73,3.84-.81,5.62a14.07,14.07,0,0,0,.34,5.15,19.44,19.44,0,0,0,3,5.9c1.36,1.74,3.31,3,5.14,4.53s3.77,2.91,5.84,4.53,4.29,3.45,6.56,5.2,5,3.82,7,5.41a40.09,40.09,0,0,1,4.93,4.14c1.51,1.6,3.79,4.1,4.11,5.48s-1.4,2.19-2.21,2.79a5.78,5.78,0,0,1-2.66.84,12.24,12.24,0,0,1-2.94.21,31.87,31.87,0,0,1-3.32-.46l-7-1.08c-2.58-.39-5.15-.8-8.51-1.33s-8.17-1.29-11.69-1.84l-9.38-1.45c-3.12-.49-6.9-1.1-9.38-1.51s-3.46-.67-5.42-.95a33.51,33.51,0,0,0-6.32-.7,21.17,21.17,0,0,0-6.28,1.44,16.46,16.46,0,0,0-4.61,3,19.93,19.93,0,0,0-2.66,3.49,40.51,40.51,0,0,0-2.44,3.25c-.74,1.19-2.73,2.94-2,3.92s4.5,1.45,6.53,1.93,3.91.69,5.59.95a30.45,30.45,0,0,0,4.45.63c4.29.47,9.32,1.45,21.29,2.16s36.54,1.55,50.47,2.16,25.56,1.1,33.14,1.44,9.29.44,12.33.55,4.36.14,5.95.12,2.35.46,3.63-.19a9.92,9.92,0,0,0,4-3.74,19.19,19.19,0,0,0,1.38-6.61,26.05,26.05,0,0,0-.39-5.94,15.77,15.77,0,0,0-1.14-4.28,27,27,0,0,0-2.85-5.42,50.18,50.18,0,0,0-5.17-5.9,24.14,24.14,0,0,0-4.2-3.25,16.07,16.07,0,0,0-4.29-2.32c-3.34-1.45-11.92-4.18-15.77-6.38s-5.47-4.47-7.32-6.85a24.62,24.62,0,0,1-3.72-7.47,23.24,23.24,0,0,1-1.19-7.55,28.35,28.35,0,0,1,1.36-8.1c.86-2.67,2.86-6.07,3.77-8s.86-1.82,1.72-3.54,2.15-4.56,3.4-6.83,2.36-4.87,4-6.83a24.88,24.88,0,0,1,6-4.91,8.47,8.47,0,0,1,5.25-1.4c1.68.23,3.51,1.67,4.9,2.77a16.06,16.06,0,0,1,3.44,3.82c1.2,1.7-.58-1.41,3.72,6.34s16.07,29.23,22.05,40.09,9.92,17.82,13.9,25,6.92,12.48,10,18.15,6.46,11.77,8.73,15.9l4.83,8.82c1.23,2.2,1.67,2.85,2.49,4.36s1.59,3.13,2.4,4.7a51.55,51.55,0,0,1,2.49,4.77c.65,1.63,1.91,3.64,1.4,5s-3,2.42-4.47,3.28a24.88,24.88,0,0,1-4.18,1.93c-1.77.71-3.7,1.89-6.39,2.33a68.85,68.85,0,0,1-9.75.29c-3.37,0-5.88-.19-10.47-.38l-17.08-.7-22.85-1c-7-.31-7.4-.35-19-.86S133.08,208.57,120,208s-16.62-.67-27.78-1.15"/><path id="fed6560a-6e6e-4f0e-8314-490cb70a3b11" data-name="track" class="a31b8030-cb67-4e33-bbf9-17c13befd1ab" d="M92.23,206.87c-11.16-.48-30.79-1.36-39.17-1.73s-7.83-.36-11.1-.52-6-.32-8.51-.47-4.91-.36-6.54-.45-2.22,0-3.19-.1a6.22,6.22,0,0,1-2.62-.49,2,2,0,0,1-.9-2.08,11.31,11.31,0,0,1,2.23-3.23c1-1.21,2.64-2.8,3.82-4.1s2.22-2.49,3.27-3.75,3-1.55,3-3.87-1.79-6.49-2.75-10.1-2.95-6.91-3.06-11.6,1.15-9.53,2.37-16.54,3.5-17.77,5-25.5,2.5-13.43,3.9-20.86,3.28-17.36,4.5-23.69,2.14-11.05,2.78-14.22.68-3.41,1-4.76.56-2.14.81-3.37a24.79,24.79,0,0,1,.74-4,5.85,5.85,0,0,1,2.06-2.86,6.59,6.59,0,0,1,3.75-.83c1.47.06,3.27-.07,5,1.17s3.7,4,5.53,6.24,2.73,4.16,5.42,7.4,7.49,8.68,10.74,12a70.26,70.26,0,0,0,8.74,7.93c2.81,2.07,5.76,3.22,8.17,4.48s4.67,1.59,6.31,3a16.11,16.11,0,0,1,3.51,5.66,9.18,9.18,0,0,1,.5,4.37c0,1.64-.53,3.67-.79,5.52s-.73,3.84-.81,5.62a14.07,14.07,0,0,0,.34,5.15,19.44,19.44,0,0,0,3,5.9c1.36,1.74,3.31,3,5.14,4.53s3.77,2.91,5.84,4.53,4.29,3.45,6.56,5.2,5,3.82,7,5.41a40.09,40.09,0,0,1,4.93,4.14c1.51,1.6,3.79,4.1,4.11,5.48s-1.4,2.19-2.21,2.79a5.78,5.78,0,0,1-2.66.84,12.24,12.24,0,0,1-2.94.21,31.87,31.87,0,0,1-3.32-.46l-7-1.08c-2.58-.39-5.15-.8-8.51-1.33s-8.17-1.29-11.69-1.84l-9.38-1.45c-3.12-.49-6.9-1.1-9.38-1.51s-3.46-.67-5.42-.95a33.51,33.51,0,0,0-6.32-.7,21.17,21.17,0,0,0-6.28,1.44,16.46,16.46,0,0,0-4.61,3,19.93,19.93,0,0,0-2.66,3.49,40.51,40.51,0,0,0-2.44,3.25c-.74,1.19-2.73,2.94-2,3.92s4.5,1.45,6.53,1.93,3.91.69,5.59.95a30.45,30.45,0,0,0,4.45.63c4.29.47,9.32,1.45,21.29,2.16s36.54,1.55,50.47,2.16,25.56,1.1,33.14,1.44,9.29.44,12.33.55,4.36.14,5.95.12,2.35.46,3.63-.19a9.92,9.92,0,0,0,4-3.74,19.19,19.19,0,0,0,1.38-6.61,26.05,26.05,0,0,0-.39-5.94,15.77,15.77,0,0,0-1.14-4.28,27,27,0,0,0-2.85-5.42,50.18,50.18,0,0,0-5.17-5.9,24.14,24.14,0,0,0-4.2-3.25,16.07,16.07,0,0,0-4.29-2.32c-3.34-1.45-11.92-4.18-15.77-6.38s-5.47-4.47-7.32-6.85a24.62,24.62,0,0,1-3.72-7.47,23.24,23.24,0,0,1-1.19-7.55,28.35,28.35,0,0,1,1.36-8.1c.86-2.67,2.86-6.07,3.77-8s.86-1.82,1.72-3.54,2.15-4.56,3.4-6.83,2.36-4.87,4-6.83a24.88,24.88,0,0,1,6-4.91,8.47,8.47,0,0,1,5.25-1.4c1.68.23,3.51,1.67,4.9,2.77a16.06,16.06,0,0,1,3.44,3.82c1.2,1.7-.58-1.41,3.72,6.34s16.07,29.23,22.05,40.09,9.92,17.82,13.9,25,6.92,12.48,10,18.15,6.46,11.77,8.73,15.9l4.83,8.82c1.23,2.2,1.67,2.85,2.49,4.36s1.59,3.13,2.4,4.7a51.55,51.55,0,0,1,2.49,4.77c.65,1.63,1.91,3.64,1.4,5s-3,2.42-4.47,3.28a24.88,24.88,0,0,1-4.18,1.93c-1.77.71-3.7,1.89-6.39,2.33a68.85,68.85,0,0,1-9.75.29c-3.37,0-5.88-.19-10.47-.38l-17.08-.7-22.85-1c-7-.31-7.4-.35-19-.86l-16.93-.74L120,208c-13.08-.56-16.62-.67-27.78-1.15"/></g></svg>