<svg xmlns="http://www.w3.org/2000/svg" viewBox="0 0 280 280"><defs><style>.a2d3aa04-8a6f-4254-b64a-2e61245337db,.badabd64-a36e-48ee-b117-425dbf519201{fill:none;}.a2d3aa04-8a6f-4254-b64a-2e61245337db{stroke:#f7f4f1;stroke-width:14px;}.badabd64-a36e-48ee-b117-425dbf519201{stroke:#1c1c29;stroke-width:4px;}</style></defs><g id="b6ee748a-c4ba-435b-ad27-651fab346ed3" data-name="Large"><path id="b82fdc66-5a92-4eb5-bf35-7ca1c8dec780" data-name="track" class="a2d3aa04-8a6f-4254-b64a-2e61245337db" d="M198.43,98.44c-4,.17-9.52.24-14.11.36s-10.29.32-13.47.36-2.55.28-5.6-.12-8-1.42-12.72-2.25S141.83,94.54,137,94a58,58,0,0,0-13.4-.34c-6.65.48-19.9,2.09-26.52,3.21a79.87,79.87,0,0,0-13.18,3.46c-2.77.87-2.37.22-3.4,1.77s-1.56,5.67-2.81,7.51-2.24,2-4.67,3.52-7.72,3.61-9.89,5.72-1.15,1.89-3.1,7S54.11,142,51.48,149.23s-5.79,16.13-7.19,20.23-1.33,2.4-1.21,4.41,1.56,5.78,1.94,7.62.79,2.29.38,3.41.52.21-2.82,3.36S29,200.38,25.35,203.85s-4,3.65-4.83,5.26a4.86,4.86,0,0,0,0,4.43,4.78,4.78,0,0,0,3.66,2c1.66.21,2.83-.28,6.31-.82s9.56-1.59,14.61-2.43,11-2,15.63-2.56a116.16,116.16,0,0,1,12-1.07c3.08-.07,3.55.24,6.49.62s8.29,1.29,11.19,1.7,4.42,1,6.24.77a7.14,7.14,0,0,0,4.71-2.23,19.43,19.43,0,0,0,4.12-6.86,49.14,49.14,0,0,0,3-12.19c.23-3.78-.72-6.21-1.63-10.47s-3-11.86-3.78-15.13-.93-3.15-.75-4.54.8-2.06,1.81-3.84,3.15-5.37,4.22-6.83.58-2,2.19-2,4.86,1.9,7.49,2.28,5.12.06,8.32,0,5.75-.28,10.89-.52,13.94-.65,20-.89,13.15-.48,16.3-.54,2-.2,2.58.16.68,1.45,1.13,2.05.43,1.62,1.57,1.52,2.4-.84,5.24-2.07,8.12-3.49,11.72-5.24a91,91,0,0,0,9.86-5.24,67.21,67.21,0,0,0,8.4-6.62c2.82-2.54,5.95-5.94,8.51-8.6s4.34-4.82,6.85-7.42a113.33,113.33,0,0,1,8.27-8.11c2.4-1.92,2.91-1.75,6.09-3.37s10.43-4.85,13-6.35,2-1.5,2.21-2.57-.33-2-1.06-3.85a58.29,58.29,0,0,0-3.37-7.06c-1.1-1.74-1.7-3-3.2-3.39s-3.51.4-5.9,1.18-3.9,1.58-8.42,3.48-14,6.08-18.71,8-6.46,2.59-9.78,3.25-6.05.57-10.09.76"/><path id="ad263600-4166-46f3-b447-f0c37a711a19" data-name="track" class="badabd64-a36e-48ee-b117-425dbf519201" d="M198.43,98.44c-4,.17-9.52.24-14.11.36s-10.29.32-13.47.36-2.55.28-5.6-.12-8-1.42-12.72-2.25S141.83,94.54,137,94a58,58,0,0,0-13.4-.34c-6.65.48-19.9,2.09-26.52,3.21a79.87,79.87,0,0,0-13.18,3.46c-2.77.87-2.37.22-3.4,1.77s-1.56,5.67-2.81,7.51-2.24,2-4.67,3.52-7.72,3.61-9.89,5.72-1.15,1.89-3.1,7S54.11,142,51.48,149.23s-5.79,16.13-7.19,20.23-1.33,2.4-1.21,4.41,1.56,5.78,1.94,7.62.79,2.29.38,3.41.52.21-2.82,3.36S29,200.38,25.35,203.85s-4,3.65-4.83,5.26a4.86,4.86,0,0,0,0,4.43,4.78,4.78,0,0,0,3.66,2c1.66.21,2.83-.28,6.31-.82s9.56-1.59,14.61-2.43,11-2,15.63-2.56a116.16,116.16,0,0,1,12-1.07c3.08-.07,3.55.24,6.49.62s8.29,1.29,11.19,1.7,4.42,1,6.24.77a7.14,7.14,0,0,0,4.71-2.23,19.43,19.43,0,0,0,4.12-6.86,49.14,49.14,0,0,0,3-12.19c.23-3.78-.72-6.21-1.63-10.47s-3-11.86-3.78-15.13-.93-3.15-.75-4.54.8-2.06,1.81-3.84,3.15-5.37,4.22-6.83.58-2,2.19-2,4.86,1.9,7.49,2.28,5.12.06,8.32,0,5.75-.28,10.89-.52,13.94-.65,20-.89,13.15-.48,16.3-.54,2-.2,2.58.16.68,1.45,1.13,2.05.43,1.62,1.57,1.52,2.4-.84,5.24-2.07,8.12-3.49,11.72-5.24a91,91,0,0,0,9.86-5.24,67.21,67.21,0,0,0,8.4-6.62c2.82-2.54,5.95-5.94,8.51-8.6s4.34-4.82,6.85-7.42a113.33,113.33,0,0,1,8.27-8.11c2.4-1.92,2.91-1.75,6.09-3.37s10.43-4.85,13-6.35,2-1.5,2.21-2.57-.33-2-1.06-3.85a58.29,58.29,0,0,0-3.37-7.06c-1.1-1.74-1.7-3-3.2-3.39s-3.51.4-5.9,1.18-3.9,1.58-8.42,3.48-14,6.08-18.71,8-6.46,2.59-9.78,3.25-6.05.57-10.09.76"/></g></svg>